<svg class="i__heart" xmlns="http://www.w3.org/2000/svg" viewBox="2893 -2734 22 21"><g transform="translate(-3687 -3140)"><path d="M22,7a6.957,6.957,0,0,0-7-7,5.486,5.486,0,0,0-4,1.5A5.486,5.486,0,0,0,7,0,7,7,0,0,0,2,11.9H2l8.3,8.8h0c.1.1.1.1.2.1l.1.1c.1,0,.2.1.4.1h0a.756.756,0,0,0,.4-.1l.1-.1c.1,0,.1-.1.2-.1h0L20,11.9h0A6.966,6.966,0,0,0,22,7ZM7,2a3.1,3.1,0,0,1,3,1.5h0a.945.945,0,0,0,1,1,.945.945,0,0,0,1-1A3.1,3.1,0,0,1,15,2a4.951,4.951,0,0,1,5,5,5,5,0,0,1-1.4,3.5h0l-7.5,8-7.5-8h0A4.449,4.449,0,0,1,2,7,4.951,4.951,0,0,1,7,2Z" transform="translate(6580 406)"/></g></svg>