<svg style="display:none" xmlns="http://www.w3.org/2000/svg" xmlns:xlink="http://www.w3.org/1999/xlink"><symbol viewBox="2893 -2734 22 21" id="heart" xmlns="http://www.w3.org/2000/svg"><path d="M2915-2727a6.957 6.957 0 0 0-7-7 5.486 5.486 0 0 0-4 1.5 5.486 5.486 0 0 0-4-1.5 7 7 0 0 0-5 11.9l8.3 8.8c.1.1.1.1.2.1l.1.1c.1 0 .2.1.4.1a.756.756 0 0 0 .4-.1l.1-.1c.1 0 .1-.1.2-.1l8.3-8.8a6.966 6.966 0 0 0 2-4.9zm-15-5a3.1 3.1 0 0 1 3 1.5.945.945 0 0 0 1 1 .945.945 0 0 0 1-1 3.1 3.1 0 0 1 3-1.5 4.951 4.951 0 0 1 5 5 5 5 0 0 1-1.4 3.5l-7.5 8-7.5-8a4.449 4.449 0 0 1-1.6-3.5 4.951 4.951 0 0 1 5-5z"/></symbol><symbol viewBox="0 0 34 24" id="logo" xmlns="http://www.w3.org/2000/svg"><path d="M10.11 19H5v-8.87L.06 1.57H0V22a2 2 0 0 0 2 2h11l-2.87-5zM21.57 0H3.37v.05L6.19 5h15.49A7.22 7.22 0 0 1 29 11.82 7 7 0 0 1 22 19h-7.66v.05L17.16 24H22a12 12 0 0 0 12-12.19A12.28 12.28 0 0 0 21.57 0z"/></symbol></svg>